<?xml version="1.0" encoding="UTF-8" standalone="no"?>
<!-- Created with Inkscape (http://www.inkscape.org/) -->

<svg
   version="1.1"
   id="svg9"
   xml:space="preserve"
   width="3178.5867"
   height="4493.8535"
   viewBox="0 0 3178.5867 4493.8535"
   sodipodi:docname="MSc_Poster_Template.svg"
   inkscape:version="1.1.2 (b8e25be833, 2022-02-05)"
   xmlns:inkscape="http://www.inkscape.org/namespaces/inkscape"
   xmlns:sodipodi="http://sodipodi.sourceforge.net/DTD/sodipodi-0.dtd"
   xmlns="http://www.w3.org/2000/svg"
   xmlns:svg="http://www.w3.org/2000/svg"><defs
     id="defs13"><clipPath
       clipPathUnits="userSpaceOnUse"
       id="clipPath29"><path
         d="m 734.355,31858.3 h 7401.06 v 1108.6 H 734.355 Z"
         id="path27" /></clipPath></defs><sodipodi:namedview
     id="namedview11"
     pagecolor="#ffffff"
     bordercolor="#666666"
     borderopacity="1.0"
     inkscape:pageshadow="2"
     inkscape:pageopacity="0.0"
     inkscape:pagecheckerboard="0"
     showgrid="false"
     inkscape:zoom="0.25175962"
     inkscape:cx="2500.401"
     inkscape:cy="3233.2429"
     inkscape:window-width="1920"
     inkscape:window-height="1009"
     inkscape:window-x="-8"
     inkscape:window-y="-8"
     inkscape:window-maximized="1"
     inkscape:current-layer="g17" /><g
     id="g15"
     inkscape:groupmode="layer"
     inkscape:label="ink_ext_XXXXXX"
     transform="matrix(1.3333333,0,0,-1.3333333,0,4493.8533)"><g
       id="g17"
       transform="scale(0.1)"><g
         id="g19"
         transform="scale(2.06773)"><path
           d="M -79.9696,16354.8 V 13558.2 H 11604.7 v 2796.6 H -79.9696"
           style="fill:#e9ebea;fill-opacity:1;fill-rule:nonzero;stroke:none"
           id="path21" /></g><g
         id="g23"><g
           id="g25"
           clip-path="url(#clipPath29)"><g
             id="g31"
             transform="scale(2.01519)"><path
               d="m 1108.58,15858.5 h -16.49 v 441.5 h 16.49 v -441.5"
               style="fill:#040606;fill-opacity:1;fill-rule:nonzero;stroke:none"
               id="path33" /></g><g
             id="g35"
             transform="scale(2.01519)"><path
               d="m 1108.58,15858.5 h -16.49 v 441.5 h 16.49 z"
               style="fill:none;stroke:#040606;stroke-width:2.42559;stroke-linecap:butt;stroke-linejoin:miter;stroke-miterlimit:10;stroke-dasharray:none;stroke-opacity:1"
               id="path37" /></g><g
             id="g39"
             transform="scale(2.00188)"><path
               d="m 1238.04,16217 c 9.77,24.4 26.37,45.9 47.86,60.5 20.51,14.7 44.93,22.5 69.34,22.5 35.16,0 61.53,-9.8 79.11,-30.3 17.58,-20.5 26.37,-50.8 26.37,-90.8 V 15963 h -16.6 v 216.9 c 0,35.1 -7.81,61.5 -21.49,78.1 -14.65,16.6 -37.11,25.4 -67.39,25.4 -27.35,0 -54.69,-10.7 -74.23,-30.3 -21.49,-21.5 -36.14,-48.8 -41.99,-78.1 v -211 h -16.61 v 330.1 h 16.61 v -77.1 h -0.98"
               style="fill:#040606;fill-opacity:1;fill-rule:nonzero;stroke:none"
               id="path41" /></g><g
             id="g43"
             transform="scale(2.00188)"><path
               d="m 1238.04,16217 c 9.77,24.4 26.37,45.9 47.86,60.5 20.51,14.7 44.93,22.5 69.34,22.5 35.16,0 61.53,-9.8 79.11,-30.3 17.58,-20.5 26.37,-50.8 26.37,-90.8 V 15963 h -16.6 v 216.9 c 0,35.1 -7.81,61.5 -21.49,78.1 -14.65,16.6 -37.11,25.4 -67.39,25.4 -27.35,0 -54.69,-10.7 -74.23,-30.3 -21.49,-21.5 -36.14,-48.8 -41.99,-78.1 v -211 h -16.61 v 330.1 h 16.61 v -77.1 z"
               style="fill:none;stroke:#040606;stroke-width:2.44172;stroke-linecap:butt;stroke-linejoin:miter;stroke-miterlimit:10;stroke-dasharray:none;stroke-opacity:1"
               id="path45" /></g><g
             id="g47"
             transform="scale(2.01543)"><path
               d="m 1577.02,15856.7 v 282.3 h -57.24 v 16.5 h 57.24 v 47.5 c 0,30.1 7.76,54.3 23.28,70.8 16.49,17.5 38.8,26.2 63.06,25.2 13.58,0 26.19,-1.9 38.8,-4.8 l -2.91,-15.5 c -11.64,2.9 -24.25,4.8 -35.89,4.8 -19.41,1 -37.84,-6.8 -51.42,-21.3 -13.58,-16.5 -20.37,-37.9 -18.43,-60.2 v -46.5 h 86.34 v -16.5 h -86.34 v -282.3 h -16.49"
               style="fill:#040606;fill-opacity:1;fill-rule:nonzero;stroke:none"
               id="path49" /></g><g
             id="g51"
             transform="scale(2.01543)"><path
               d="m 1577.02,15856.7 v 282.3 h -57.24 v 16.5 h 57.24 v 47.5 c 0,30.1 7.76,54.3 23.28,70.8 16.49,17.5 38.8,26.2 63.06,25.2 13.58,0 26.19,-1.9 38.8,-4.8 l -2.91,-15.5 c -11.64,2.9 -24.25,4.8 -35.89,4.8 -19.41,1 -37.84,-6.8 -51.42,-21.3 -13.58,-16.5 -20.37,-37.9 -18.43,-60.2 v -46.5 h 86.34 v -16.5 h -86.34 v -282.3 z"
               style="fill:none;stroke:#040606;stroke-width:2.4253;stroke-linecap:butt;stroke-linejoin:miter;stroke-miterlimit:10;stroke-dasharray:none;stroke-opacity:1"
               id="path53" /></g><g
             id="g55"
             transform="scale(2.00212)"><path
               d="m 1750.59,16120.3 c 0,-26.4 4.88,-51.7 16.6,-75.2 9.77,-21.5 25.39,-40 45.9,-53.7 19.53,-12.7 42.97,-19.5 66.41,-19.5 35.15,-1 69.34,14.6 91.8,42 23.43,28.3 35.15,64.4 35.15,109.3 v 9.8 c 0,26.4 -5.86,51.8 -16.6,75.2 -9.76,21.5 -25.39,40 -45.9,53.7 -19.53,12.7 -42.97,19.5 -66.4,19.5 -36.14,1 -70.32,-14.6 -91.8,-42.9 -24.42,-30.3 -37.11,-69.4 -36.14,-108.4 v -9.8 z m -16.6,13.7 c 0,29.3 5.86,58.6 18.56,84.9 10.74,24.5 29.29,44 51.75,58.6 22.46,13.7 48.83,21.5 75.2,21.5 53.71,1 103.51,-29.3 125.98,-78.1 12.69,-26.4 18.55,-55.7 18.55,-85 v -14.6 c 0.98,-29.3 -5.86,-58.6 -17.58,-85 -10.74,-24.4 -29.29,-43.9 -50.78,-58.6 -22.46,-13.6 -48.83,-21.5 -75.2,-21.5 -53.71,-0.9 -103.51,30.3 -125.97,79.2 -12.7,26.3 -18.56,54.6 -18.56,83.9 l -1.95,14.7"
               style="fill:#040606;fill-opacity:1;fill-rule:nonzero;stroke:none"
               id="path57" /></g><g
             id="g59"
             transform="scale(2.00212)"><path
               d="m 1750.59,16120.3 c 0,-26.4 4.88,-51.7 16.6,-75.2 9.77,-21.5 25.39,-40 45.9,-53.7 19.53,-12.7 42.97,-19.5 66.41,-19.5 35.15,-1 69.34,14.6 91.8,42 23.43,28.3 35.15,64.4 35.15,109.3 v 9.8 c 0,26.4 -5.86,51.8 -16.6,75.2 -9.76,21.5 -25.39,40 -45.9,53.7 -19.53,12.7 -42.97,19.5 -66.4,19.5 -36.14,1 -70.32,-14.6 -91.8,-42.9 -24.42,-30.3 -37.11,-69.4 -36.14,-108.4 v -9.8 z m -16.6,13.7 c 0,29.3 5.86,58.6 18.56,84.9 10.74,24.5 29.29,44 51.75,58.6 22.46,13.7 48.83,21.5 75.2,21.5 53.71,1 103.51,-29.3 125.98,-78.1 12.69,-26.4 18.55,-55.7 18.55,-85 v -14.6 c 0.98,-29.3 -5.86,-58.6 -17.58,-85 -10.74,-24.4 -29.29,-43.9 -50.78,-58.6 -22.46,-13.6 -48.83,-21.5 -75.2,-21.5 -53.71,-0.9 -103.51,30.3 -125.97,79.2 -12.7,26.3 -18.56,54.6 -18.56,83.9 z"
               style="fill:none;stroke:#040606;stroke-width:2.44143;stroke-linecap:butt;stroke-linejoin:miter;stroke-miterlimit:10;stroke-dasharray:none;stroke-opacity:1"
               id="path61" /></g><g
             id="g63"
             transform="scale(2.00212)"><path
               d="m 2247.67,16280.5 -21.49,1.9 c -26.37,1 -51.76,-8.8 -70.31,-27.3 -20.51,-20.5 -33.2,-47.9 -37.11,-76.2 v -215.8 h -16.6 v 329.1 h 16.6 v -68.4 c 7.81,21.5 21.48,41 40.04,54.7 19.53,13.7 42.97,21.5 67.38,20.5 7.81,0 15.63,-1 23.44,-3.9 l -1.95,-14.6"
               style="fill:#040606;fill-opacity:1;fill-rule:nonzero;stroke:none"
               id="path65" /></g><g
             id="g67"
             transform="scale(2.00212)"><path
               d="m 2247.67,16280.5 -21.49,1.9 c -26.37,1 -51.76,-8.8 -70.31,-27.3 -20.51,-20.5 -33.2,-47.9 -37.11,-76.2 v -215.8 h -16.6 v 329.1 h 16.6 v -68.4 c 7.81,21.5 21.48,41 40.04,54.7 19.53,13.7 42.97,21.5 67.38,20.5 7.81,0 15.63,-1 23.44,-3.9 z"
               style="fill:none;stroke:#040606;stroke-width:2.44143;stroke-linecap:butt;stroke-linejoin:miter;stroke-miterlimit:10;stroke-dasharray:none;stroke-opacity:1"
               id="path69" /></g><g
             id="g71"
             transform="scale(2.00284)"><path
               d="m 2546.56,15956.4 h -16.6 v 221.6 c 0,33.2 -7.81,57.6 -21.48,74.2 -14.64,16.6 -37.09,24.4 -68.33,24.4 -36.12,0 -69.31,-17.6 -88.84,-47.9 -13.66,-18.5 -22.45,-41 -27.33,-63.4 v -208.9 h -16.6 v 329.9 h 16.6 v -78.1 c 9.76,25.4 26.36,46.9 47.83,62.5 41.01,28.3 94.7,29.3 136.67,3.9 18.55,-14.6 31.24,-36.1 34.17,-59.5 9.76,23.4 26.36,42.9 47.84,56.6 22.45,13.7 47.83,21.5 74.19,21.5 35.14,0 62.48,-9.8 79.07,-30.3 16.6,-20.5 26.36,-50.8 26.36,-90.8 v -215.7 h -16.59 v 213.8 c 0,36.1 -6.84,62.4 -21.48,80 -14.64,17.6 -37.1,25.4 -68.34,25.4 -38.07,1 -73.21,-17.6 -95.66,-47.8 -11.72,-14.7 -19.53,-33.2 -22.46,-52.8 l 0.98,-218.6"
               style="fill:#040606;fill-opacity:1;fill-rule:nonzero;stroke:none"
               id="path73" /></g><g
             id="g75"
             transform="scale(2.00284)"><path
               d="m 2546.56,15956.4 h -16.6 v 221.6 c 0,33.2 -7.81,57.6 -21.48,74.2 -14.64,16.6 -37.09,24.4 -68.33,24.4 -36.12,0 -69.31,-17.6 -88.84,-47.9 -13.66,-18.5 -22.45,-41 -27.33,-63.4 v -208.9 h -16.6 v 329.9 h 16.6 v -78.1 c 9.76,25.4 26.36,46.9 47.83,62.5 41.01,28.3 94.7,29.3 136.67,3.9 18.55,-14.6 31.24,-36.1 34.17,-59.5 9.76,23.4 26.36,42.9 47.84,56.6 22.45,13.7 47.83,21.5 74.19,21.5 35.14,0 62.48,-9.8 79.07,-30.3 16.6,-20.5 26.36,-50.8 26.36,-90.8 v -215.7 h -16.59 v 213.8 c 0,36.1 -6.84,62.4 -21.48,80 -14.64,17.6 -37.1,25.4 -68.34,25.4 -38.07,1 -73.21,-17.6 -95.66,-47.8 -11.72,-14.7 -19.53,-33.2 -22.46,-52.8 z"
               style="fill:none;stroke:#040606;stroke-width:2.44055;stroke-linecap:butt;stroke-linejoin:miter;stroke-miterlimit:10;stroke-dasharray:none;stroke-opacity:1"
               id="path77" /></g><g
             id="g79"
             transform="scale(2.002)"><path
               d="m 2948.04,15973.8 c 28.33,-1 55.67,6.8 80.09,20.5 22.46,13.7 40.04,34.2 49.81,58.6 v 78.1 h -76.18 c -46.88,0 -83.01,-9.7 -108.41,-28.3 -18.55,-12.7 -30.27,-34.2 -30.27,-56.6 0,-19.6 8.79,-39.1 24.41,-51.8 16.61,-14.6 38.09,-21.5 60.55,-20.5 z m 135.76,-10.7 c -4.89,19.5 -6.84,40 -5.86,60.5 -12.7,-21.5 -31.26,-38.1 -53.72,-48.8 -23.44,-11.7 -49.81,-17.6 -76.18,-17.6 -26.37,-1 -52.73,7.8 -73.24,24.4 -18.56,16.6 -28.33,40.1 -28.33,64.5 0,30.3 15.63,57.6 41.02,73.2 27.35,18.6 63.48,27.4 109.38,28.3 h 81.07 v 47.9 c 0.97,24.4 -7.82,47.9 -26.37,64.5 -17.58,15.6 -42,22.4 -74.23,22.4 -27.34,1 -53.71,-6.8 -75.2,-23.4 -18.55,-12.7 -30.27,-34.2 -30.27,-57.6 l -16.61,0.9 c 0,27.4 13.68,52.8 35.16,68.4 24.42,19.5 55.67,29.3 86.92,28.3 35.16,0 63.49,-8.8 84.97,-26.3 21.49,-18.6 33.2,-46.9 32.23,-75.2 v -158.3 c 0,-36.1 2.93,-60.5 8.79,-74.2 v -2.9 h -19.53 v 1"
               style="fill:#040606;fill-opacity:1;fill-rule:nonzero;stroke:none"
               id="path81" /></g><g
             id="g83"
             transform="scale(2.002)"><path
               d="m 2948.04,15973.8 c 28.33,-1 55.67,6.8 80.09,20.5 22.46,13.7 40.04,34.2 49.81,58.6 v 78.1 h -76.18 c -46.88,0 -83.01,-9.7 -108.41,-28.3 -18.55,-12.7 -30.27,-34.2 -30.27,-56.6 0,-19.6 8.79,-39.1 24.41,-51.8 16.61,-14.6 38.09,-21.5 60.55,-20.5 z m 135.76,-10.7 c -4.89,19.5 -6.84,40 -5.86,60.5 -12.7,-21.5 -31.26,-38.1 -53.72,-48.8 -23.44,-11.7 -49.81,-17.6 -76.18,-17.6 -26.37,-1 -52.73,7.8 -73.24,24.4 -18.56,16.6 -28.33,40.1 -28.33,64.5 0,30.3 15.63,57.6 41.02,73.2 27.35,18.6 63.48,27.4 109.38,28.3 h 81.07 v 47.9 c 0.97,24.4 -7.82,47.9 -26.37,64.5 -17.58,15.6 -42,22.4 -74.23,22.4 -27.34,1 -53.71,-6.8 -75.2,-23.4 -18.55,-12.7 -30.27,-34.2 -30.27,-57.6 l -16.61,0.9 c 0,27.4 13.68,52.8 35.16,68.4 24.42,19.5 55.67,29.3 86.92,28.3 35.16,0 63.49,-8.8 84.97,-26.3 21.49,-18.6 33.2,-46.9 32.23,-75.2 v -158.3 c 0,-36.1 2.93,-60.5 8.79,-74.2 v -2.9 h -19.53 z"
               style="fill:none;stroke:#040606;stroke-width:2.44157;stroke-linecap:butt;stroke-linejoin:miter;stroke-miterlimit:10;stroke-dasharray:none;stroke-opacity:1"
               id="path85" /></g><g
             id="g87"
             transform="scale(2.01327)"><path
               d="m 3219,16300 v -88.4 h 74.78 v -16.5 H 3219 v -242.8 c -0.98,-17.5 2.91,-35.9 11.65,-51.4 8.74,-11.7 23.31,-18.5 37.88,-16.6 10.68,0 21.36,1 32.04,3 l 2.92,-15.6 c -11.66,-2.9 -22.34,-3.9 -33.99,-3.9 -24.28,0 -40.79,6.8 -51.48,19.5 -10.68,12.6 -15.53,33.9 -15.53,63.1 v 244.7 h -61.19 v 16.5 h 61.19 v 88.4 H 3219"
               style="fill:#040606;fill-opacity:1;fill-rule:nonzero;stroke:none"
               id="path89" /></g><g
             id="g91"
             transform="scale(2.01327)"><path
               d="m 3219,16300 v -88.4 h 74.78 v -16.5 H 3219 v -242.8 c -0.98,-17.5 2.91,-35.9 11.65,-51.4 8.74,-11.7 23.31,-18.5 37.88,-16.6 10.68,0 21.36,1 32.04,3 l 2.92,-15.6 c -11.66,-2.9 -22.34,-3.9 -33.99,-3.9 -24.28,0 -40.79,6.8 -51.48,19.5 -10.68,12.6 -15.53,33.9 -15.53,63.1 v 244.7 h -61.19 v 16.5 h 61.19 v 88.4 z"
               style="fill:none;stroke:#040606;stroke-width:2.4279;stroke-linecap:butt;stroke-linejoin:miter;stroke-miterlimit:10;stroke-dasharray:none;stroke-opacity:1"
               id="path93" /></g><g
             id="g95"
             transform="scale(2.01531)"><path
               d="m 3395.22,15857.6 h -16.49 v 337.6 h 16.49 z m -25.22,425.9 c 0,4.9 1.94,8.7 4.85,11.7 2.91,2.9 7.76,4.8 11.64,4.8 9.7,0 16.49,-7.8 17.46,-17.5 0,-4.8 -1.94,-8.7 -4.85,-11.6 -2.91,-2.9 -7.76,-4.9 -11.64,-4.9 -9.7,1 -17.46,7.8 -17.46,17.5 v 0"
               style="fill:#040606;fill-opacity:1;fill-rule:nonzero;stroke:none"
               id="path97" /></g><g
             id="g99"
             transform="scale(2.01531)"><path
               d="m 3395.22,15857.6 h -16.49 v 337.6 h 16.49 z m -25.22,425.9 c 0,4.9 1.94,8.7 4.85,11.7 2.91,2.9 7.76,4.8 11.64,4.8 9.7,0 16.49,-7.8 17.46,-17.5 0,-4.8 -1.94,-8.7 -4.85,-11.6 -2.91,-2.9 -7.76,-4.9 -11.64,-4.9 -9.7,1 -17.46,7.8 -17.46,17.5 z"
               style="fill:none;stroke:#040606;stroke-width:2.42544;stroke-linecap:butt;stroke-linejoin:miter;stroke-miterlimit:10;stroke-dasharray:none;stroke-opacity:1"
               id="path101" /></g><g
             id="g103"
             transform="scale(2.00212)"><path
               d="m 3637.33,15972.8 c 26.36,-0.9 52.73,7.9 74.22,23.5 19.53,16.6 31.25,40 32.22,66.4 h 16.6 c -0.97,-30.3 -13.67,-57.6 -37.1,-77.2 -24.42,-19.5 -54.69,-30.2 -85.94,-29.3 -38.09,-1.9 -74.22,15.7 -98.64,45 -24.41,30.2 -36.13,70.3 -36.13,122 v 10.8 c 0,49.8 11.72,89.8 36.13,120.1 23.44,29.3 59.57,45.9 97.66,44.9 32.23,1 62.5,-9.7 86.92,-31.2 23.43,-21.5 36.13,-51.8 36.13,-84 h -16.6 c 0,27.3 -11.72,52.7 -31.25,71.3 -20.51,18.5 -47.86,28.3 -75.2,27.3 -33.2,2 -65.43,-13.6 -86.91,-40 -20.51,-26.4 -31.25,-63.5 -31.25,-110.4 v -10.7 c 0,-45.9 10.74,-82 31.25,-108.4 21.48,-27.4 53.71,-42 87.89,-40.1"
               style="fill:#040606;fill-opacity:1;fill-rule:nonzero;stroke:none"
               id="path105" /></g><g
             id="g107"
             transform="scale(2.00212)"><path
               d="m 3637.33,15972.8 c 26.36,-0.9 52.73,7.9 74.22,23.5 19.53,16.6 31.25,40 32.22,66.4 h 16.6 c -0.97,-30.3 -13.67,-57.6 -37.1,-77.2 -24.42,-19.5 -54.69,-30.2 -85.94,-29.3 -38.09,-1.9 -74.22,15.7 -98.64,45 -24.41,30.2 -36.13,70.3 -36.13,122 v 10.8 c 0,49.8 11.72,89.8 36.13,120.1 23.44,29.3 59.57,45.9 97.66,44.9 32.23,1 62.5,-9.7 86.92,-31.2 23.43,-21.5 36.13,-51.8 36.13,-84 h -16.6 c 0,27.3 -11.72,52.7 -31.25,71.3 -20.51,18.5 -47.86,28.3 -75.2,27.3 -33.2,2 -65.43,-13.6 -86.91,-40 -20.51,-26.4 -31.25,-63.5 -31.25,-110.4 v -10.7 c 0,-45.9 10.74,-82 31.25,-108.4 21.48,-27.4 53.71,-42 87.89,-40.1 z"
               style="fill:none;stroke:#040606;stroke-width:2.44143;stroke-linecap:butt;stroke-linejoin:miter;stroke-miterlimit:10;stroke-dasharray:none;stroke-opacity:1"
               id="path109" /></g><g
             id="g111"
             transform="scale(2.00224)"><path
               d="m 4045.29,16042.2 c 0,40 -34.18,67.4 -102.53,82 -41.02,8.8 -69.33,19.6 -85.94,34.2 -16.6,14.7 -25.38,35.2 -24.41,56.6 0,23.5 11.72,45.9 30.27,59.6 23.44,16.6 51.76,24.4 80.08,23.4 30.27,2 60.54,-7.8 85.93,-25.3 21.48,-16.6 33.2,-42 32.22,-68.4 h -16.6 c 0,21.5 -10.74,43 -28.31,55.7 -21.49,15.6 -46.88,23.4 -73.24,22.4 -24.42,1 -48.83,-4.9 -68.36,-18.5 -15.62,-10.8 -25.39,-28.4 -25.39,-46.9 -0.97,-12.7 2.93,-24.4 9.77,-35.2 8.79,-9.7 18.55,-17.5 31.25,-22.4 19.53,-8.8 41.01,-15.6 62.49,-19.5 22.46,-4.9 43.95,-11.8 64.45,-22.5 13.67,-6.8 26.37,-17.6 34.18,-30.3 7.81,-12.7 10.74,-28.3 10.74,-42.9 0.98,-25.4 -11.72,-48.9 -32.22,-62.5 -24.42,-16.6 -53.71,-25.4 -83.98,-23.5 -32.23,-1.9 -63.48,6.9 -89.84,25.4 -21.48,14.7 -34.18,39.1 -34.18,64.5 h 16.6 c 0.98,-21.5 12.7,-42 30.27,-53.8 22.46,-13.6 49.8,-20.5 76.17,-19.5 25.39,-1 50.78,5.9 72.26,20.5 17.58,7.8 27.34,26.4 28.32,46.9"
               style="fill:#040606;fill-opacity:1;fill-rule:nonzero;stroke:none"
               id="path113" /></g><g
             id="g115"
             transform="scale(2.00224)"><path
               d="m 4045.29,16042.2 c 0,40 -34.18,67.4 -102.53,82 -41.02,8.8 -69.33,19.6 -85.94,34.2 -16.6,14.7 -25.38,35.2 -24.41,56.6 0,23.5 11.72,45.9 30.27,59.6 23.44,16.6 51.76,24.4 80.08,23.4 30.27,2 60.54,-7.8 85.93,-25.3 21.48,-16.6 33.2,-42 32.22,-68.4 h -16.6 c 0,21.5 -10.74,43 -28.31,55.7 -21.49,15.6 -46.88,23.4 -73.24,22.4 -24.42,1 -48.83,-4.9 -68.36,-18.5 -15.62,-10.8 -25.39,-28.4 -25.39,-46.9 -0.97,-12.7 2.93,-24.4 9.77,-35.2 8.79,-9.7 18.55,-17.5 31.25,-22.4 19.53,-8.8 41.01,-15.6 62.49,-19.5 22.46,-4.9 43.95,-11.8 64.45,-22.5 13.67,-6.8 26.37,-17.6 34.18,-30.3 7.81,-12.7 10.74,-28.3 10.74,-42.9 0.98,-25.4 -11.72,-48.9 -32.22,-62.5 -24.42,-16.6 -53.71,-25.4 -83.98,-23.5 -32.23,-1.9 -63.48,6.9 -89.84,25.4 -21.48,14.7 -34.18,39.1 -34.18,64.5 h 16.6 c 0.98,-21.5 12.7,-42 30.27,-53.8 22.46,-13.6 49.8,-20.5 76.17,-19.5 25.39,-1 50.78,5.9 72.26,20.5 17.58,7.8 27.34,26.4 28.32,46.9 z"
               style="fill:none;stroke:#040606;stroke-width:2.44128;stroke-linecap:butt;stroke-linejoin:miter;stroke-miterlimit:10;stroke-dasharray:none;stroke-opacity:1"
               id="path117" /></g><g
             id="g119"
             transform="scale(2.02251)"><path
               d="m 418.196,16300 h 437.925 c 30.937,0 55.104,-25.1 55.104,-55.1 V 15807 c 0,-31 -25.135,-55.1 -55.104,-55.1 H 418.196 c -30.937,0 -55.105,25.1 -55.105,55.1 v 437.9 c 0,30 24.168,55.1 55.105,55.1 z m 178.844,-497.9 v 96.7 h -19.335 v -96.7 z m 128.573,0 v 16.5 h -44.47 v 23.2 h 37.706 v 16.4 h -37.706 v 22.2 h 44.47 v 16.5 h -63.805 v -96.7 h 63.805 z m 134.374,0 v 96.7 h -19.335 v -59 l -38.67,59 h -16.43 v -96.7 h 19.335 v 59 l 38.668,-59 z m -331.586,96.7 h -19.333 l -15.469,-60.9 -17.4,60.9 h -14.501 l -17.403,-60.9 -14.501,60.9 h -19.335 l 26.104,-96.7 h 15.469 l 17.398,59 17.404,-59 h 15.464 z m -49.303,75.4 v 195.3 h 58.971 v -195.3 z m -74.435,269.7 H 610.574 V 16185 H 404.663 Z m 336.419,-272.6 h -2.9 c -55.104,5.8 -97.639,52.2 -97.639,108.3 v 164.3 h 59.933 v -161.4 c 0,-23.2 16.438,-44.5 38.67,-50.3 0.968,0 1.936,0 2.903,-0.9 z m 18.367,60 c 0.968,0 1.935,0 2.903,0 22.232,5.8 38.668,27 38.668,50.2 l -0.967,162.4 h 59.934 v -162.4 c 0,-56 -42.535,-103.4 -97.635,-109.2 h -1.935 l -0.968,59"
               style="fill:#040606;fill-opacity:1;fill-rule:evenodd;stroke:none"
               id="path121" /></g></g></g><g
         id="g123"
         transform="scale(10)"><text
           transform="matrix(1,0,0,-1,218.976,2908.73)"
           style="font-variant:normal;font-weight:300;font-size:36px;font-family:Roboto;-inkscape-font-specification:Roboto-Light;writing-mode:lr-tb;fill:#231f20;fill-opacity:1;fill-rule:nonzero;stroke:none"
           id="text129"><tspan
             sodipodi:role="line"
             id="tspan125"
             x="0"
             y="0">Michael Etschbacher</tspan><tspan
             sodipodi:role="line"
             id="tspan127"
             x="0"
             y="45">Data Science</tspan></text><text
           transform="scale(1,-1)"
           style="font-variant:normal;font-weight:500;font-size:54px;font-family:Roboto;-inkscape-font-specification:Roboto-Medium;writing-mode:lr-tb;fill:#231f20;fill-opacity:1;fill-rule:nonzero;stroke:none"
           id="text135"
           x="213.01793"
           y="-3105.9749"><tspan
             sodipodi:role="line"
             x="213.01793"
             y="-3105.9749"
             id="tspan10081">Reducing the operation cost of a file fixtiy storage </tspan><tspan
             sodipodi:role="line"
             x="213.01793"
             y="-3038.4749"
             id="tspan20551">on the ethereum blockchain</tspan><tspan
             sodipodi:role="line"
             x="213.01793"
             y="-2970.9749"
             id="tspan12585">by utilizing pool testing strategies</tspan></text><text
           transform="matrix(1,0,0,-1,2054.656,2997.2325)"
           style="font-variant:normal;font-weight:500;font-size:28px;font-family:Roboto;-inkscape-font-specification:Roboto-Medium;writing-mode:lr-tb;fill:#231f20;fill-opacity:1;fill-rule:nonzero;stroke:none"
           id="text139"><tspan
             x="0 16.996 35.251999 42.223999 66.863998 74.003998 89.040001 104.608 111.58 119.476 135.04401 144.95599 160.888 170.744 195.104 210.252 219.576 226.716 241.36"
             y="0"
             sodipodi:role="line"
             id="tspan137">TU Wien Informatics</tspan></text><text
           transform="matrix(1,0,0,-1,1932.416,2962.2325)"
           style="font-variant:normal;font-weight:300;font-size:28px;font-family:Roboto;-inkscape-font-specification:Roboto-Light;writing-mode:lr-tb;fill:#231f20;fill-opacity:1;fill-rule:nonzero;stroke:none"
           id="text149"><tspan
             x="0 6.7199998 22.483999 28.756001 35.028 41.299999 48.104 54.375999 69.748001 76.552002 92.232002 99.96991 115.41932 129.84323 136.11855 151.11659 157.39191 164.20059 179.58139 194.57942 219.39388 233.85873 240.66742 256.34879 265.61835 272.42703 278.70236 294.08334 308.26093 317.25693 323.53226 332.52826 347.90924 356.90524 371.3699"
             y="0"
             sodipodi:role="line"
             id="tspan141">[Fill in of cial name of institute]</tspan><tspan
             x="-60.1203 -53.400299 -37.636299 -31.3643 -25.0923 -18.820299 -12.0163 -5.7442999 9.6276999 16.4317 32.111698 39.849613 55.299023 69.722923 75.998245 90.996284 97.271606 104.08029 119.46108 134.45912 159.27357 173.73843 180.54712 196.22849 205.49805 212.30673 221.46689 235.93176 250.10953 264.5744 279.57224 288.73257 303.15628 318.52341 325.33209 340.71307 356.09387 362.36917 371.3652"
             y="35"
             sodipodi:role="line"
             id="tspan143">[Fill in of cial name of research unit]</tspan><tspan
             x="-146.9101 -130.33411 -114.9621 -99.450104 -84.974098 -75.290123 -61.822124 -55.550125 -41.382122 -25.702124 -16.294123 -10.414124 -3.6101234 3.1098766 18.873877 25.145876 31.417877 37.689877 44.493877 50.765877 66.137878 72.941879 88.313873 103.32188 128.12988 142.60588 147.95387 154.75787 170.32588 184.80188 200.34187 209.51961 223.99561 238.4716 252.6396 259.4436 274.4516 289.82361 305.3916 312.19562 321.18359 327.4556 336.4436 342.71561 357.19159 371.35959"
             y="70"
             sodipodi:role="line"
             id="tspan145">Supervisor: [Fill in name, degrees and titles]</tspan><tspan
             x="-157.6402 -139.4682 -123.7882 -108.4162 -99.4282 -84.420197 -70.000198 -61.012199 -55.132198 -48.328201 -41.6082 -25.8442 -19.572201 -13.3002 -7.0282001 -0.2242 6.0478001 21.4198 28.223801 41.369892 57.049892 72.42189 81.829895 88.633896 103.10989 127.91789 142.92589 149.19789 155.46989 162.2739 177.28189 192.8499 208.41789 217.56984 232.04584 246.21384 260.38184 265.72983 272.53384 288.21384 303.72583 312.71384 318.98584 334.66583 350.03784 365.04584 371.31784"
             y="105"
             sodipodi:role="line"
             id="tspan147">Contact: [Fill in your email address, optional]</tspan></text></g><g
         id="g151"
         transform="matrix(10,0,0,10,21925.677,-655.38709)"><text
           transform="matrix(1,0,0,-1,1106.54,2702.09)"
           style="font-variant:normal;font-weight:300;font-size:33px;font-family:Roboto;-inkscape-font-specification:Roboto-Light;writing-mode:lr-tb;fill:#516d6e;fill-opacity:1;fill-rule:nonzero;stroke:none"
           id="text169"><tspan
             x="0 21.615 29.007 58.244999 75.306 93.422997 110.121 117.513 135.993 154.11 170.808"
             y="0"
             sodipodi:role="line"
             id="tspan153">Dimensions </tspan><tspan
             x="-92.910202 -71.295197 -62.5172 -39.0872 -31.068199 -10.4432 7.8388 15.8578 26.3848 44.666801 62.948799 81.230797 89.249802 105.2878 113.3068 131.58881 149.8708 168.1528 186.4348 194.4538 223.6918 252.92979"
             y="39.599998"
             sodipodi:role="line"
             id="tspan155">DIN A0 (841 x 1189 mm)</tspan><tspan
             x="-558.2652 -538.56421 -520.4472 -503.3862 -495.36719 -484.44421 -465.9642 -447.8472 -437.25421 -420.55621 -414.2532 -406.23419 -389.53619 -378.94321 -363.26819 -355.87619 -338.81519 -322.11719 -315.81421 -307.7952 -289.4472 -282.05521 -252.8172 -235.7562 -217.63921 -200.94119 -193.54919 -175.0692 -156.95219 -140.2542 -132.2352 -114.5472 -96.430199 -78.082199 -70.063202 -51.7812 -44.389198 -26.7012 -9.7061996 7.3548002 36.5928 53.653801 71.770798 82.3638 90.382797 108.8628 119.7858 127.8048 138.3978 156.5148 173.57581 181.5948 204.9588 222.01981 239.70779 258.05579 275.11679 286.2048 294.22379 310.92181 327.98279 344.97781 355.5708 362.9628 381.44281 399.55981 407.5788 425.26682 436.17981 453.24081 461.2598 479.3768 497.85681 508.4498 516.46881 526.77002 545.25 553.26898 571.55103 588.612 596.63098 613.62598 631.74298 649.43103 667.54797 685.86298 702.92401 721.27197"
             y="118.8"
             sodipodi:role="line"
             id="tspan157">The fonts, styles, dimensions and placement of the Header section are not to be changed.</tspan><tspan
             x="-723.91718 -715.13922 -704.21619 -696.1972 -678.50922 -670.49017 -652.14221 -635.08118 -626.23907 -617.37671 -599.24933 -582.20142 -563.8645 -555.84009 -545.23761 -528.1897 -512.14093 -501.53842 -493.51401 -475.22537 -457.08176 -441.03296 -433.00854 -425.61255 -408.90302 -400.8786 -390.59833 -372.11639 -353.63449 -345.61005 -328.90057 -299.65497 -281.9787 -274.58267 -267.18668 -259.16229 -248.23755 -229.7556 -218.65353 -210.62917 -195.19264 -176.71078 -158.58333 -147.48117 -139.45689 -122.45741 -103.97546 -85.848007 -75.245537 -58.19762 -40.070267 -29.467697 -23.15132 -15.126948 1.9208684 9.800251 28.1049 35.984283 44.008801 54.61137 62.007374 72.609947 80.005951 97.053764 105.07813 123.56009 134.48485 142.50922 157.94565 176.4276 194.55505 205.6571 213.68147 224.28406 242.39529 259.44321 276.15262 283.54865 300.25806 306.57443 314.59882 332.93576 349.98367 366.98318 377.77908 394.8269 412.50317 429.21271 446.26053 454.28491 464.88748 482.99881 500.04663 508.07098 526.35956 537.15533 554.20325 572.5401 589.58826 598.45044 607.31281 625.44019 660.82495 668.84943 685.55896 696.16132 711.83966 719.23553 734.99481 739.0553 755.76483 763.78931 774.71405 793.19586 811.32336 821.92578 829.9502 846.65973 854.05566 869.84656 886.89471"
             y="158.39999"
             sodipodi:role="line"
             id="tspan159">If a def ned text box is too small for your content, e.g. title of your thesis, decrease the predef ne style’s font size.</tspan><tspan
             x="-317.34521 -297.6442 -279.52719 -272.13519 -255.43719 -247.4182 -229.1362 -210.96509 -194.92709 -186.90808 -179.51608 -161.39909 -143.05109 -135.65909 -118.66409 -100.97609 -90.383087 -73.32209 -56.624088 -48.605087 -38.012085 -19.895086 -2.8340867 5.1849136 22.641956 38.271793 55.948074 63.344173 70.740181 88.416458 106.705 114.10101 131.14893 139.17329 155.88272 174.17126 191.84764 208.84703 225.89494 233.91933 244.84407 263.32593 274.4281 282.45245 297.88898 316.37085 334.49829 345.60034 353.62473 370.62421 389.10617 407.23352 417.83609 434.884 453.01135 463.61392 480.32336"
             y="237.60001"
             sodipodi:role="line"
             id="tspan161">This box indicates the available space for your contents.</tspan><tspan
             x="-509.31119 -500.5332 -489.94019 -481.9212 -452.6832 -434.56619 -417.86819 -407.27521 -399.2562 -380.97421 -363.91321 -355.8942 -337.61221 -330.22021 -312.5322 -295.5372 -278.4762 -260.1282 -252.10921 -227.2272 -219.83521 -209.2422 -191.1252 -183.1062 -165.4182 -157.3992 -139.1172 -120.8352 -112.9482 -94.666199 -65.4282 -36.190201 -28.1712 1.0668 18.754801 29.631863 47.946861 55.338863 73.455864 81.474861 91.761902 110.24191 118.2609 128.85391 146.9709 164.03191 172.0509 190.16791 207.22891 224.9169 243.26491 260.3259 271.41391 279.43289 297.12091 315.23792 333.58591 341.60492 352.19791 370.31491 387.37592 395.3949 412.4559 430.80389 449.1189 466.1799 482.8779 490.89691 509.37689 520.29993 528.31891 538.91193 557.02893 574.0899 582.10889 600.39093 618.87091 635.56891 646.16193 663.2229 672.29193"
             y="277.20001"
             sodipodi:role="line"
             id="tspan163">It must be placed with a 12.7mm margin to the header and the edges of the poster.</tspan><tspan
             x="-364.37219 -345.66467 -327.18277 -309.05536 -301.03094 -282.69397 -264.21213 -256.18774 -238.0603 -219.57835 -208.97588 -200.95151 -182.82407 -165.77625 -148.72833 -130.39136 -122.367 -112.08669 -93.604736 -85.58046 -67.2435 -50.195583 -41.333267 -32.471008 -14.343656 2.7042589 10.72863 28.404911 36.429283 52.300816 59.696823 76.406342 83.802345 102.09089 109.48689 126.53471 134.55908 152.84772 171.32957 182.12549 200.46245 217.51036 228.61243 236.6368 254.31308 265.09299 283.57483 301.70227 319.82962 338.1666 346.19098 361.62781 380.10974 398.23709 409.33926 417.36365 434.36313 470.97244 481.57492 498.62283 516.75018 527.35272"
             y="316.79999"
             sodipodi:role="line"
             id="tspan165">You do not need to def ne a visible border around your cotent.</tspan><tspan
             x="-280.47021 -258.85519 -241.7942 -234.40221 -217.3412 -206.7482 -189.68719 -181.6682 -171.0752 -152.95821 -145.56619 -128.86819 -120.8492 -113.4572 -95.340202 -84.417198 -65.937202 -57.918201 -39.6362 -21.468212 -5.4302115 2.5887883 12.891945 31.371944 39.390945 56.088943 66.681946 84.369942 96.291931 106.88493 114.90393 139.78593 158.26593 169.35393 185.52393 192.91592 211.03293 229.34793 237.36693 255.84692 273.96393 281.98294 297.46182 315.94183 334.05884 345.14685 353.16583 371.44785 389.92783 406.62582 417.21884 434.27985 443.45212"
             y="395.9949"
             sodipodi:role="line"
             id="tspan167">Delete this info box to start working on your poster.</tspan></text></g><g
         id="g171"
         transform="scale(1.69813)"><path
           d="M 220.832,16300 V 220.832 H 13817.8 V 16300 Z"
           style="fill:none;stroke:#516d6e;stroke-width:17.6665;stroke-linecap:butt;stroke-linejoin:miter;stroke-miterlimit:4;stroke-dasharray:none;stroke-opacity:1"
           id="path173" /></g><g
         id="g175"
         transform="scale(10)"><text
           transform="matrix(1,0,0,-1,1932.49,3236.15)"
           style="font-style:italic;font-variant:normal;font-weight:300;font-size:28px;font-family:Roboto;-inkscape-font-specification:Roboto-LightItalic;writing-mode:lr-tb;fill:#231f20;fill-opacity:1;fill-rule:nonzero;stroke:none"
           id="text183"><tspan
             x="0 16.856001 23.072001 37.743999 51.855999 66.024002 72.772003 78.987999 94.332001 109.536 124.88 131.62801 146.972 156.10001 162.84801 171.88983 186.05783 199.94583 214.11383 228.78583 237.80969 251.92169 266.95767 273.70569 288.76968 303.83368 310.04968 318.89767 325.64569 340.6817 354.8497 363.84991"
             y="0"
             sodipodi:role="line"
             id="tspan177">Place logo of research unit here</tspan><tspan
             x="-39.680099 -16.0481 -1.3760999 11.9799 18.1959 42.415901 57.4799 81.699898 88.447899 103.6799 109.8959 134.11591 148.28391 163.3479 177.2359 183.4519 198.7959 213.85989 227.74789 233.5719 240.3199 255.4959 270.67191 285.8479 299.20389 314.37991 329.55591 353.77591"
             y="35"
             sodipodi:role="line"
             id="tspan179">Maximum dimensions: 200x60mm</tspan><tspan
             x="-147.03011 -129.9221 -123.7061 -117.4901 -102.2861 -87.222099 -73.0541 -57.822102 -51.0741 -42.510086 -27.166084 -20.418085 -11.570085 3.4659157 17.633915 24.381916 33.649914 39.865917 55.069916 70.105919 78.953918 84.273918 91.021919 99.869919 108.62971 123.30171 138.36571 152.25371 167.42972 182.10172 191.13983 205.30783 220.37183 229.21983 235.96783 251.14383 265.81583 279.92783 293.11996 308.32321 317.31934 332.67288 347.72556 362.77805"
             y="70"
             sodipodi:role="line"
             id="tspan181">Aligned to the right, transparent background</tspan></text></g><rect
         style="fill:#0000ff;fill-rule:evenodd;stroke-width:7.5"
         id="rect64805"
         width="3902.532"
         height="2830.0808"
         x="2085.3225"
         y="-16246.772"
         transform="scale(1,-1)" /><rect
         style="fill:#0000ff;fill-rule:evenodd;stroke-width:7.5"
         id="rect64805-2"
         width="3902.532"
         height="2830.0808"
         x="2398.1213"
         y="-11316.474"
         transform="scale(1,-1)" /><rect
         style="fill:#0000ff;fill-rule:evenodd;stroke-width:7.5"
         id="rect64805-2-0"
         width="3902.532"
         height="2830.0808"
         x="3023.7178"
         y="-10720.667"
         transform="scale(1,-1)" /><rect
         style="fill:#0000ff;fill-rule:evenodd;stroke-width:7.5"
         id="rect64805-2-0-8"
         width="3902.532"
         height="2830.0808"
         x="3381.2017"
         y="-10184.441"
         transform="scale(1,-1)" /><rect
         style="fill:#0000ff;fill-rule:evenodd;stroke-width:12.2357"
         id="rect64805-2-0-3"
         width="5451.6289"
         height="5392.0464"
         x="8594.5078"
         y="-11465.424"
         transform="scale(1,-1)" /><rect
         style="fill:#0000ff;fill-rule:evenodd;stroke-width:6.09314"
         id="rect64805-2-0-3-6"
         width="3306.7256"
         height="2204.4819"
         x="16131.46"
         y="-9826.9561"
         transform="scale(1,-1)" /><rect
         style="fill:#0000ff;fill-rule:evenodd;stroke-width:7.5"
         id="rect64805-5"
         width="3902.532"
         height="2830.0808"
         x="7209.2578"
         y="-16246.772"
         transform="scale(1,-1)" /><rect
         style="fill:#0000ff;fill-rule:evenodd;stroke-width:7.5"
         id="rect64805-7"
         width="3902.532"
         height="2830.0808"
         x="12362.983"
         y="-16246.772"
         transform="scale(1,-1)" /><rect
         style="fill:#0000ff;fill-rule:evenodd;stroke-width:7.5"
         id="rect64805-5-0"
         width="3902.532"
         height="2830.0808"
         x="17486.92"
         y="-16246.772"
         transform="scale(1,-1)" /><rect
         style="fill:#0000ff;fill-rule:evenodd;stroke-width:7.5"
         id="rect64958"
         width="6583.6611"
         height="4855.8228"
         x="4557.9189"
         y="-26375.482"
         transform="scale(1,-1)" /><rect
         style="fill:#0000ff;fill-rule:evenodd;stroke-width:7.5"
         id="rect64958-8"
         width="6583.6611"
         height="4855.8228"
         x="12303.402"
         y="-26375.482"
         transform="scale(1,-1)" /><rect
         style="fill:#666666;fill-rule:evenodd;stroke-width:7.5"
         id="rect65108"
         width="12184.242"
         height="2859.8708"
         x="5570.7905"
         y="-20179.096"
         transform="scale(1,-1)" /><rect
         style="fill:#666666;fill-rule:evenodd;stroke-width:2.05925"
         id="rect65108-5"
         width="4408.9683"
         height="595.80634"
         x="5630.3706"
         y="-21400.498"
         transform="scale(1,-1)" /><rect
         style="fill:#666666;fill-rule:evenodd;stroke-width:2.05925"
         id="rect65108-5-6"
         width="4408.9683"
         height="595.80634"
         x="13346.064"
         y="-21400.498"
         transform="scale(1,-1)" /><rect
         style="fill:#666666;stroke-width:7.5"
         id="rect65176"
         width="59.580643"
         height="774.5484"
         x="14001.451"
         y="-19344.965"
         transform="scale(1,-1)" /><rect
         style="fill:#666666;stroke-width:7.5"
         id="rect65940"
         width="2144.9033"
         height="714.96771"
         x="14716.42"
         y="-11837.805"
         transform="scale(1,-1)" /><rect
         style="fill:#666666;stroke-width:7.5"
         id="rect65940-8"
         width="2144.9033"
         height="714.96771"
         x="17784.824"
         y="-11837.805"
         transform="scale(1,-1)" /></g></g></svg>
